# xmcd
#
# Track frame offsets:
# 150
# 18592
# 30411
# 50772
# 71007
# 86384
# 99767
# 112599
# 126324
# 141446
# 161931
# 185047
# 203219
#
# Disc length: 2903 seconds
#
#
# Revision: 0
# Processed by: cddbd v1.4PL0 Copyright (c) Steve Scherf et al.
# Submitted via: FreeRIP 2.52 
#
DISCID=b30b550d
DTITLE=Undivided Hearts - From Our Heart To Yours
DYEAR=1997
DGENRE=Gospel
TTITLE0=Home Fires Burning
TTITLE1=Old Time Gospel Singing
TTITLE2=Rock of Ages
TTITLE3=Precious Lord, Take My Hand
TTITLE4=Jesus Will Lead Me Home
TTITLE5=Street of Gold
TTITLE6=Blessed Assurance
TTITLE7=Noah Found Grace
TTITLE8=His Love
TTITLE9=Power in The Blood
TTITLE10=What Have I Been Living For
TTITLE11=Medley in the 700's
TTITLE12=Amazing Grace
EXTD=
EXTT0=
EXTT1=
EXTT2=
EXTT3=
EXTT4=
EXTT5=
EXTT6=
EXTT7=
EXTT8=
EXTT9=
EXTT10=
EXTT11=
EXTT12=
PLAYORDER=
